<?xml version="1.0" encoding="UTF-8"?>
<svg width="120px" height="120px" viewBox="0 0 120 120" version="1.1" xmlns="http://www.w3.org/2000/svg" xmlns:xlink="http://www.w3.org/1999/xlink">
    <!-- Generator: Sketch 57.1 (83088) - https://sketch.com -->
    <title>illustrations / safe and secure / 01</title>
    <desc>Created with Sketch.</desc>
    <defs>
        <polygon id="path-1" points="0.0002 0.0001 120 0.0001 120 120 0.0002 120"></polygon>
        <polygon id="path-3" points="0.2014 0.0001 117.7994 0.0001 117.7994 48 0.2014 48"></polygon>
    </defs>
    <g id="breakpoints" stroke="none" stroke-width="1" fill="none" fill-rule="evenodd">
        <g id="1920" transform="translate(-357.000000, -8565.000000)">
            <g id="Group-11" transform="translate(357.000000, 8565.000000)">
                <g id="illustrations-/-safe-and-secure-/-01">
                    <g id="Oval-01">
                        <path d="M60.0002,119.0001 C27.4682,119.0001 1.0002,92.5331 1.0002,60.0001 C1.0002,27.4671 27.4682,1.0001 60.0002,1.0001 C92.5322,1.0001 119.0002,27.4671 119.0002,60.0001 C119.0002,92.5331 92.5322,119.0001 60.0002,119.0001" id="Fill-1" fill="#FFFFFF"></path>
                        <g id="Group-5">
                            <mask id="mask-2" fill="white">
                                <use xlink:href="#path-1"></use>
                            </mask>
                            <g id="Clip-4"></g>
                            <path d="M60.0002,0.0001 C26.8622,0.0001 0.0002,26.8631 0.0002,60.0001 C0.0002,93.1371 26.8622,120.0001 60.0002,120.0001 C93.1372,120.0001 120.0002,93.1371 120.0002,60.0001 C120.0002,26.8631 93.1372,0.0001 60.0002,0.0001 M60.0002,2.0001 C91.9812,2.0001 118.0002,28.0191 118.0002,60.0001 C118.0002,91.9811 91.9812,118.0001 60.0002,118.0001 C28.0192,118.0001 2.0002,91.9811 2.0002,60.0001 C2.0002,28.0191 28.0192,2.0001 60.0002,2.0001" id="Fill-3" fill="#DFDEEE" mask="url(#mask-2)"></path>
                        </g>
                        <g id="Group-8" transform="translate(1.000000, 72.000000)">
                            <mask id="mask-4" fill="white">
                                <use xlink:href="#path-3"></use>
                            </mask>
                            <g id="Clip-7"></g>
                            <path d="M0.2014,0.0001 C5.7614,27.3871 29.9724,48.0001 59.0004,48.0001 C88.0274,48.0001 112.2394,27.3871 117.7994,0.0001 L0.2014,0.0001 Z" id="Fill-6" fill="#88F1CB" mask="url(#mask-4)"></path>
                        </g>
                        <path d="M98.2727,60.0001 C98.2727,81.1381 81.1377,98.2731 60.0007,98.2731 C38.8627,98.2731 21.7267,81.1381 21.7267,60.0001 C21.7267,38.8621 38.8627,21.7271 60.0007,21.7271 C81.1377,21.7271 98.2727,38.8621 98.2727,60.0001" id="Fill-9" fill="#4AC663"></path>
                        <path d="M64.7932,60.0001 C64.7932,62.6471 62.6472,64.7931 60.0002,64.7931 C57.3532,64.7931 55.2072,62.6471 55.2072,60.0001 C55.2072,57.3531 57.3532,55.2071 60.0002,55.2071 C62.6472,55.2071 64.7932,57.3531 64.7932,60.0001 Z" id="Stroke-11" stroke="#6FD9A2" stroke-width="2" stroke-linecap="round" stroke-linejoin="round"></path>
                        <path d="M72.7688,57.6485 C72.9088,58.4115 72.9818,59.1965 72.9818,60.0005 C72.9818,67.1695 67.1688,72.9815 59.9998,72.9815 C52.8308,72.9815 47.0188,67.1695 47.0188,60.0005 C47.0188,52.8305 52.8308,47.0185 59.9998,47.0185 C64.4808,47.0185 68.4318,49.2885 70.7638,52.7415" id="Stroke-13" stroke="#6FD9A2" stroke-width="2" stroke-linecap="round" stroke-linejoin="round"></path>
                        <path d="M48.1526,42.4532 C51.5336,40.1662 55.6106,38.8302 60.0006,38.8302 C71.6916,38.8302 81.1696,48.3082 81.1696,60.0002 C81.1696,71.6912 71.6916,81.1692 60.0006,81.1692 C48.3076,81.1692 38.8306,71.6912 38.8306,60.0002 C38.8306,55.5792 40.1846,51.4752 42.5026,48.0812" id="Stroke-15" stroke="#6FD9A2" stroke-width="2" stroke-linecap="round" stroke-linejoin="round"></path>
                        <path d="M35.9954,43.0934 C41.3104,35.5614 50.0804,30.6424 60.0004,30.6424 C68.5634,30.6424 76.2704,34.3084 81.6374,40.1574" id="Stroke-17" stroke="#6FD9A2" stroke-width="2" stroke-linecap="round" stroke-linejoin="round"></path>
                        <path d="M23.6487,71.9483 C28.6827,87.2073 43.0537,98.2213 60.0007,98.2213 C76.9457,98.2213 91.3167,87.2073 96.3517,71.9483 L23.6487,71.9483 Z" id="Fill-19" fill="#FBFAFF"></path>
                    </g>
                </g>
            </g>
        </g>
    </g>
</svg>