<svg width="18" height="18" viewBox="0 0 18 18" xmlns="http://www.w3.org/2000/svg">
<path d="M16.9312 0.000488281H0.989115C0.443213 0.000488281 0 0.442816 0 0.989603V16.9317C0 17.4785 0.443213 17.9214 0.989115 17.9214H9.57187V10.9814H7.23659V8.27636H9.57187V6.2816C9.57187 3.96727 10.985 2.70639 13.05 2.70639C14.04 2.70639 14.889 2.78046 15.1365 2.81262V5.2317L13.7042 5.23229C12.5814 5.23229 12.3648 5.76609 12.3648 6.54895V8.27547H15.0436L14.6933 10.9802H12.3645V17.9205H16.9309C17.4774 17.9205 17.9209 17.477 17.9209 16.9317V0.989013C17.9206 0.442816 17.4777 0.000488281 16.9312 0.000488281Z"/>
</svg>
