<svg width="18" height="18" viewBox="0 0 18 18" xmlns="http://www.w3.org/2000/svg">
<path d="M9.80029 8.14493V8.07011C9.78499 8.0952 9.76384 8.12029 9.75056 8.14493H9.80029Z" fill="white"/>
<path fill-rule="evenodd" clip-rule="evenodd" d="M0 18V0H18V18H0ZM5.59867 14.9539V6.91936H2.92811V14.9539H5.59867ZM4.26339 5.82274H4.24575C3.3499 5.82274 2.76923 5.20556 2.76923 4.43413C2.76923 3.64577 3.36687 3.04607 4.28087 3.04607C5.19508 3.04607 5.75687 3.64577 5.77436 4.43413C5.77436 5.20556 5.19508 5.82274 4.26339 5.82274ZM12.5595 14.9539H15.2308V10.3465C15.2308 7.87882 13.9131 6.73077 12.1552 6.73077C10.7361 6.73077 10.1027 7.5117 9.74769 8.05791V6.9194H7.0759C7.1117 7.67314 7.0759 14.954 7.0759 14.954H9.74769V10.4668C9.74769 10.226 9.76605 9.98735 9.83631 9.81566C10.0296 9.335 10.4684 8.83879 11.2067 8.83879C12.1735 8.83879 12.5595 9.57576 12.5595 10.6554V14.9539Z"/>
</svg>
