<?xml version="1.0" encoding="UTF-8"?>
<svg width="120px" height="120px" viewBox="0 0 120 120" version="1.1" xmlns="http://www.w3.org/2000/svg" xmlns:xlink="http://www.w3.org/1999/xlink">
    <!-- Generator: Sketch 57.1 (83088) - https://sketch.com -->
    <title>illustrations / safe and secure / 02</title>
    <desc>Created with Sketch.</desc>
    <defs>
        <path d="M0.495867769,42.1487603 C0.495867769,58.6641322 7.22578512,73.6076033 18.0912397,84.3877686 L18.0912397,84.3877686 L60.1656198,42.3143802 L17.9246281,0.0733884298 C7.15636364,10.8406612 0.495867769,25.7166942 0.495867769,42.1487603 L0.495867769,42.1487603 Z" id="path-1"></path>
        <path d="M0.495867769,42.1487603 C0.495867769,58.6641322 7.22578512,73.6076033 18.0912397,84.3877686 L18.0912397,84.3877686 L60.1656198,42.3143802 L17.9246281,0.0733884298 C7.15636364,10.8406612 0.495867769,25.7166942 0.495867769,42.1487603 L0.495867769,42.1487603 Z" id="path-3"></path>
        <path d="M0.495867769,42.1487603 C0.495867769,58.6641322 7.22578512,73.6076033 18.0912397,84.3877686 L18.0912397,84.3877686 L60.1656198,42.3143802 L17.9246281,0.0733884298 C7.15636364,10.8406612 0.495867769,25.7166942 0.495867769,42.1487603 L0.495867769,42.1487603 Z" id="path-5"></path>
        <path d="M0.495867769,42.1487603 C0.495867769,58.6641322 7.22578512,73.6076033 18.0912397,84.3877686 L18.0912397,84.3877686 L60.1656198,42.3143802 L17.9246281,0.0733884298 C7.15636364,10.8406612 0.495867769,25.7166942 0.495867769,42.1487603 L0.495867769,42.1487603 Z" id="path-7"></path>
        <path d="M0.495867769,42.1487603 C0.495867769,58.6641322 7.22578512,73.6076033 18.0912397,84.3877686 L18.0912397,84.3877686 L60.1656198,42.3143802 L17.9246281,0.0733884298 C7.15636364,10.8406612 0.495867769,25.7166942 0.495867769,42.1487603 L0.495867769,42.1487603 Z" id="path-9"></path>
        <path d="M0.495867769,42.1487603 C0.495867769,58.6641322 7.22578512,73.6076033 18.0912397,84.3877686 L18.0912397,84.3877686 L60.1656198,42.3143802 L17.9246281,0.0733884298 C7.15636364,10.8406612 0.495867769,25.7166942 0.495867769,42.1487603 L0.495867769,42.1487603 Z" id="path-11"></path>
    </defs>
    <g id="breakpoints" stroke="none" stroke-width="1" fill="none" fill-rule="evenodd">
        <g id="1920" transform="translate(-760.000000, -8565.000000)">
            <g id="Group-11" transform="translate(357.000000, 8565.000000)">
                <g id="illustrations-/-safe-and-secure-/-02" transform="translate(403.000000, 0.000000)">
                    <g id="Oval-02">
                        <g id="Group-9">
                            <path d="M60.0000992,118.512496 C27.7369587,118.512496 1.48770248,92.2642314 1.48770248,60.0000992 C1.48770248,27.7359669 27.7369587,1.48770248 60.0000992,1.48770248 C92.2632397,1.48770248 118.512496,27.7359669 118.512496,60.0000992 C118.512496,92.2642314 92.2632397,118.512496 60.0000992,118.512496" id="Fill-1" fill="#FFFFFF"></path>
                            <path d="M60.0000992,0.495966942 C27.1369587,0.495966942 0.495966942,27.1369587 0.495966942,60.0000992 C0.495966942,92.8632397 27.1369587,119.504231 60.0000992,119.504231 C92.8632397,119.504231 119.504231,92.8632397 119.504231,60.0000992 C119.504231,27.1369587 92.8632397,0.495966942 60.0000992,0.495966942 M60.0000992,2.47943802 C91.7167934,2.47943802 117.52076,28.283405 117.52076,60.0000992 C117.52076,91.7167934 91.7167934,117.52076 60.0000992,117.52076 C28.283405,117.52076 2.47943802,91.7167934 2.47943802,60.0000992 C2.47943802,28.283405 28.283405,2.47943802 60.0000992,2.47943802" id="Fill-3" fill="#DFDEEE"></path>
                            <path d="M17.9240331,17.9239339 C7.15676033,28.6921983 0.496264463,43.5682314 0.496264463,60.0002975 C0.496264463,76.5156694 7.22618182,91.4581488 18.0916364,102.239306 L60.1660165,60.1659174 L17.9240331,17.9239339 Z" id="Fill-5" fill="#CAA1FF"></path>
                            <path d="M102.239901,18.0920331 L18.0911405,102.239802 C28.8465124,112.909884 43.653124,119.503934 59.9999008,119.503934 C76.4319669,119.503934 91.308,112.84443 102.076264,102.076165 C112.843537,91.3079008 119.504033,76.4318678 119.504033,59.9998017 C119.504033,43.6530248 112.910975,28.8464132 102.239901,18.0920331" id="Fill-7" fill="#9E4AFF"></path>
                        </g>
                        <g id="Group-28" transform="translate(0.000000, 17.851240)">
                            <g id="Group-12">
                                <mask id="mask-2" fill="white">
                                    <use xlink:href="#path-1"></use>
                                </mask>
                                <g id="Clip-11"></g>
                                <path d="M120.991835,42.1488595 C120.991835,75.833157 93.6853884,103.140595 60.0000992,103.140595 C26.3148099,103.140595 -0.991636364,75.833157 -0.991636364,42.1488595 C-0.991636364,8.46357025 26.3148099,-18.842876 60.0000992,-18.842876 C93.6853884,-18.842876 120.991835,8.46357025 120.991835,42.1488595 Z" id="Stroke-10" stroke="#E5BCFC" stroke-width="2" mask="url(#mask-2)"></path>
                            </g>
                            <g id="Group-15">
                                <mask id="mask-4" fill="white">
                                    <use xlink:href="#path-3"></use>
                                </mask>
                                <g id="Clip-14"></g>
                                <path d="M111.148066,42.1488595 C111.148066,70.3974545 88.2479008,93.2976198 60.0002975,93.2976198 C31.7507107,93.2976198 8.85153719,70.3974545 8.85153719,42.1488595 C8.85153719,13.9002645 31.7507107,-8.99990083 60.0002975,-8.99990083 C88.2479008,-8.99990083 111.148066,13.9002645 111.148066,42.1488595 Z" id="Stroke-13" stroke="#E5BCFC" stroke-width="2" mask="url(#mask-4)"></path>
                            </g>
                            <g id="Group-18">
                                <mask id="mask-6" fill="white">
                                    <use xlink:href="#path-5"></use>
                                </mask>
                                <g id="Clip-17"></g>
                                <path d="M101.305289,42.1488595 C101.305289,64.9607603 82.8123967,83.4536529 60.0004959,83.4536529 C37.188595,83.4536529 18.6947107,64.9607603 18.6947107,42.1488595 C18.6947107,19.3369587 37.188595,0.844066116 60.0004959,0.844066116 C82.8123967,0.844066116 101.305289,19.3369587 101.305289,42.1488595 Z" id="Stroke-16" stroke="#E5BCFC" stroke-width="2" mask="url(#mask-6)"></path>
                            </g>
                            <g id="Group-21">
                                <mask id="mask-8" fill="white">
                                    <use xlink:href="#path-7"></use>
                                </mask>
                                <g id="Clip-20"></g>
                                <path d="M91.4616198,42.1488595 C91.4616198,59.5250579 77.376,73.6106777 59.9998017,73.6106777 C42.624595,73.6106777 28.5389752,59.5250579 28.5389752,42.1488595 C28.5389752,24.7726612 42.624595,10.6870413 59.9998017,10.6870413 C77.376,10.6870413 91.4616198,24.7726612 91.4616198,42.1488595 Z" id="Stroke-19" stroke="#E5BCFC" stroke-width="2" mask="url(#mask-8)"></path>
                            </g>
                            <g id="Group-24">
                                <mask id="mask-10" fill="white">
                                    <use xlink:href="#path-9"></use>
                                </mask>
                                <g id="Clip-23"></g>
                                <path d="M81.6178512,42.1488595 C81.6178512,54.0883636 71.9395041,63.7667107 60,63.7667107 C48.0604959,63.7667107 38.381157,54.0883636 38.381157,42.1488595 C38.381157,30.2093554 48.0604959,20.5310083 60,20.5310083 C71.9395041,20.5310083 81.6178512,30.2093554 81.6178512,42.1488595 Z" id="Stroke-22" stroke="#E5BCFC" stroke-width="2" mask="url(#mask-10)"></path>
                            </g>
                            <g id="Group-27">
                                <mask id="mask-12" fill="white">
                                    <use xlink:href="#path-11"></use>
                                </mask>
                                <g id="Clip-26"></g>
                                <path d="M71.7750744,42.1488595 C71.7750744,48.6516694 66.504,53.9237355 60.0001983,53.9237355 C53.4963967,53.9237355 48.2253223,48.6516694 48.2253223,42.1488595 C48.2253223,35.6460496 53.4963967,30.3739835 60.0001983,30.3739835 C66.504,30.3739835 71.7750744,35.6460496 71.7750744,42.1488595 Z" id="Stroke-25" stroke="#E5BCFC" stroke-width="2" mask="url(#mask-12)"></path>
                            </g>
                        </g>
                    </g>
                </g>
            </g>
        </g>
    </g>
</svg>