<?xml version="1.0" encoding="UTF-8"?>
<svg width="120px" height="120px" viewBox="0 0 120 120" version="1.1" xmlns="http://www.w3.org/2000/svg" xmlns:xlink="http://www.w3.org/1999/xlink">
    <!-- Generator: Sketch 57.1 (83088) - https://sketch.com -->
    <title>illustrations / safe and secure / 03</title>
    <desc>Created with Sketch.</desc>
    <defs>
        <polygon id="path-1" points="0.0004 0 120 0 120 119.9998 0.0004 119.9998"></polygon>
        <polygon id="path-3" points="0.0004 0.0002 60 0.0002 60 120 0.0004 120"></polygon>
        <path d="M0.0004,120 C33.1374,120 60.0004,93.137 60.0004,60 C60.0004,26.863 33.1374,-4.54747351e-13 0.0004,-4.54747351e-13 L0.0004,120 Z" id="path-5"></path>
        <polygon id="path-7" points="0 120 120 120 120 0 0 0"></polygon>
    </defs>
    <g id="breakpoints" stroke="none" stroke-width="1" fill="none" fill-rule="evenodd">
        <g id="1920" transform="translate(-1170.000000, -8565.000000)">
            <g id="Group-11" transform="translate(357.000000, 8565.000000)">
                <g id="illustrations-/-safe-and-secure-/-03" transform="translate(813.000000, 0.000000)">
                    <g id="Oval-03">
                        <path d="M60.0004,119.0002 C27.4684,119.0002 1.0004,92.5332 1.0004,60.0002 C1.0004,27.4672 27.4684,1.0002 60.0004,1.0002 C92.5324,1.0002 119.0004,27.4672 119.0004,60.0002 C119.0004,92.5332 92.5324,119.0002 60.0004,119.0002" id="Fill-1" fill="#FFFFFF"></path>
                        <g id="Group-5">
                            <mask id="mask-2" fill="white">
                                <use xlink:href="#path-1"></use>
                            </mask>
                            <g id="Clip-4"></g>
                            <path d="M60.0004,-0.0002 C26.8624,-0.0002 0.0004,26.8628 0.0004,59.9998 C0.0004,93.1368 26.8624,119.9998 60.0004,119.9998 C93.1374,119.9998 120.0004,93.1368 120.0004,59.9998 C120.0004,26.8628 93.1374,-0.0002 60.0004,-0.0002 M60.0004,1.9998 C91.9804,1.9998 118.0004,28.0188 118.0004,59.9998 C118.0004,91.9808 91.9804,117.9998 60.0004,117.9998 C28.0194,117.9998 2.0004,91.9808 2.0004,59.9998 C2.0004,28.0188 28.0194,1.9998 60.0004,1.9998" id="Fill-3" fill="#DFDEEE" mask="url(#mask-2)"></path>
                        </g>
                        <g id="Group-8" transform="translate(60.000000, 0.000000)">
                            <mask id="mask-4" fill="white">
                                <use xlink:href="#path-3"></use>
                            </mask>
                            <g id="Clip-7"></g>
                            <path d="M0.0004,120.0002 C33.1374,120.0002 60.0004,93.1372 60.0004,60.0002 C60.0004,26.8632 33.1374,0.0002 0.0004,0.0002 L0.0004,120.0002 Z" id="Fill-6" fill="#1F40FA" mask="url(#mask-4)"></path>
                            <g id="Group-21" mask="url(#mask-4)">
                                <g transform="translate(0.000000, 0.000200)">
                                    <mask id="mask-6" fill="white">
                                        <use xlink:href="#path-5"></use>
                                    </mask>
                                    <use id="Mask" stroke="none" fill="#1F40FA" fill-rule="evenodd" xlink:href="#path-5"></use>
                                    <g id="Group-21" stroke="none" stroke-width="1" fill="none" fill-rule="evenodd" mask="url(#mask-6)">
                                        <g transform="translate(-66.000000, 7.999800)" stroke="#2E73FA" stroke-width="2">
                                            <path d="M0.394,130.0501 C0.394,130.0501 103.127,86.0211 113.488,101.1291" id="Stroke-1"></path>
                                            <path d="M6.2934,114.0789 C6.2934,114.0789 28.1624,106.4329 52.9274,98.0889 C82.7264,88.0309 113.8554,83.4939 122.4084,96.0929" id="Stroke-3"></path>
                                            <path d="M12.1928,98.1072 C12.1928,98.1072 35.2138,91.6942 60.9768,83.4212 C91.4178,73.6302 119.9298,74.1822 131.3298,91.0572" id="Stroke-5"></path>
                                            <path d="M18.0913,82.136 C18.0913,82.136 42.2643,76.956 69.0273,68.755 C100.1093,59.23 126.0053,64.87 140.2503,86.021" id="Stroke-7"></path>
                                            <path d="M2.1206,11.345 C35.3576,0.985 90.6096,-11.965 150.6096,21.704" id="Stroke-9"></path>
                                            <path d="M4.7827,23.1433 C19.2637,18.6293 45.8397,11.7243 70.6387,11.1753 C96.4647,10.6033 122.6507,16.4463 148.8837,32.4243" id="Stroke-11"></path>
                                            <path d="M7.4438,34.9421 C19.0298,31.3311 48.7938,23.5151 71.4388,22.3461 C98.5108,20.9481 123.3218,27.2531 147.1568,43.1431" id="Stroke-13"></path>
                                            <path d="M10.1059,46.7405 C18.7949,44.0325 51.7489,35.1935 72.2389,33.5165 C100.5629,31.1985 123.9929,38.0605 145.4299,53.8635" id="Stroke-15"></path>
                                            <path d="M12.768,58.5388 C18.561,56.7338 54.697,46.7738 73.039,44.6868 C102.606,41.3228 124.664,48.8678 143.704,64.5818" id="Stroke-17"></path>
                                            <path d="M15.4301,70.3377 C18.3261,69.4347 57.6301,58.2707 73.8381,55.8577 C104.6211,51.2757 125.3341,59.6747 141.9771,75.3017" id="Stroke-19"></path>
                                        </g>
                                    </g>
                                </g>
                            </g>
                        </g>
                        <mask id="mask-8" fill="white">
                            <use xlink:href="#path-7"></use>
                        </mask>
                        <g id="Clip-10"></g>
                        <polygon id="Fill-9" fill="#42C0FA" mask="url(#mask-8)" points="17.604 73.982 45.963 73.982 45.963 45.623 17.604 45.623"></polygon>
                        <path d="M105.1879,59.6658 C105.1879,68.7098 97.8559,76.0418 88.8119,76.0418 C79.7669,76.0418 72.4349,68.7098 72.4349,59.6658 C72.4349,50.6218 79.7669,43.2898 88.8119,43.2898 C97.8559,43.2898 105.1879,50.6218 105.1879,59.6658" id="Fill-11" fill="#FBFAFF" mask="url(#mask-8)"></path>
                    </g>
                </g>
            </g>
        </g>
    </g>
</svg>