<svg width="60" height="60" viewBox="0 0 60 60" xmlns="http://www.w3.org/2000/svg">
<rect opacity="0.08" x="1" y="1" width="58" height="58" rx="29" stroke="#3725D3" stroke-width="2" fill="none"/>
<path d="M41.1204 23.1259C40.3063 23.4867 39.4327 23.7313 38.5149 23.8406C39.452 23.2793 40.1694 22.3892 40.5095 21.3317C39.6304 21.8515 38.66 22.2288 37.626 22.4334C36.7981 21.5502 35.6204 21 34.3141 21C31.808 21 29.7761 23.0319 29.7761 25.5366C29.7761 25.8918 29.8162 26.2388 29.8936 26.5706C26.1228 26.3812 22.7791 24.5746 20.5412 21.8293C20.15 22.4984 19.9275 23.2779 19.9275 24.1101C19.9275 25.6845 20.7292 27.0737 21.9456 27.8864C21.2019 27.8616 20.5025 27.657 19.8902 27.317V27.3736C19.8902 29.5714 21.4549 31.4057 23.5297 31.8232C23.1495 31.9255 22.7487 31.9821 22.334 31.9821C22.041 31.9821 21.7576 31.9531 21.4798 31.8978C22.0575 33.7017 23.7329 35.0134 25.7178 35.0494C24.1655 36.2658 22.2082 36.9887 20.0823 36.9887C19.716 36.9887 19.3552 36.9666 19 36.9265C21.0084 38.2162 23.3929 38.9682 25.9556 38.9682C34.3031 38.9682 38.866 32.054 38.866 26.0577L38.8508 25.4703C39.7423 24.8344 40.5136 24.0355 41.1204 23.1259Z"/>
</svg>
