<svg width="60" height="60" viewBox="0 0 60 60" xmlns="http://www.w3.org/2000/svg">
<rect opacity="0.08" x="1" y="1" width="58" height="58" rx="29" stroke="#3725D3" stroke-width="2" fill="none"/>
<path d="M37.9312 21H21.9891C21.4432 21 21 21.4423 21 21.9891V37.9312C21 38.478 21.4432 38.9209 21.9891 38.9209H30.5719V31.9809H28.2366V29.2759H30.5719V27.2811C30.5719 24.9668 31.985 23.7059 34.05 23.7059C35.04 23.7059 35.889 23.78 36.1365 23.8121V26.2312L34.7042 26.2318C33.5814 26.2318 33.3648 26.7656 33.3648 27.5485V29.275H36.0436L35.6933 31.9797H33.3645V38.92H37.9309C38.4774 38.92 38.9209 38.4765 38.9209 37.9312V21.9885C38.9206 21.4423 38.4777 21 37.9312 21Z"/>
</svg>
