<svg width="60" height="60" viewBox="0 0 60 60" xmlns="http://www.w3.org/2000/svg">
<rect opacity="0.08" x="1" y="1" width="58" height="58" rx="29" stroke="#3725D3" stroke-width="2" fill="none"/>
<path fill-rule="evenodd" clip-rule="evenodd" d="M29.997 18H30.003C36.6195 18 42 23.3835 42 30C42 36.6165 36.6195 42 30.003 42C27.5625 42 25.299 41.274 23.4015 40.017L18.789 41.4915L20.2845 37.0335C18.846 35.058 18 32.625 18 30C18 23.382 23.3805 18 29.997 18ZM34.6305 36.639C35.547 36.441 36.696 35.763 36.9855 34.9455C37.275 34.1265 37.275 33.429 37.191 33.2805C37.1232 33.1627 36.9628 33.0855 36.7233 32.9702C36.661 32.9402 36.5933 32.9076 36.5205 32.871C36.168 32.6955 34.4535 31.848 34.1295 31.7355C33.8115 31.6155 33.5085 31.6575 33.2685 31.9965C33.2229 32.0604 33.1773 32.1244 33.132 32.1881C32.8425 32.5954 32.5632 32.9882 32.331 33.2385C32.1195 33.4635 31.7745 33.492 31.485 33.372C31.4534 33.3588 31.4173 33.3442 31.3767 33.3279C30.9184 33.1427 29.9017 32.7321 28.671 31.6365C27.633 30.7125 26.928 29.562 26.724 29.217C26.5237 28.8709 26.6965 28.668 26.8561 28.4804C26.8591 28.4769 26.8621 28.4735 26.865 28.47C26.9679 28.3426 27.0678 28.2366 27.1682 28.13C27.2405 28.0533 27.3129 27.9763 27.387 27.891C27.398 27.8783 27.4087 27.866 27.4191 27.8541C27.5764 27.6733 27.67 27.5656 27.7755 27.3405C27.8955 27.108 27.81 26.868 27.7245 26.691C27.6657 26.567 27.3023 25.6854 26.9903 24.9285C26.8568 24.6046 26.7328 24.3035 26.646 24.0945C26.4135 23.538 26.2365 23.517 25.884 23.502C25.8732 23.5015 25.8623 23.5009 25.8513 23.5004C25.7398 23.4947 25.6171 23.4885 25.482 23.4885C25.023 23.4885 24.5445 23.6235 24.255 23.919C24.2449 23.9293 24.2343 23.9401 24.2234 23.9512C23.853 24.3279 23.028 25.1669 23.028 26.8395C23.028 28.5153 24.2171 30.1372 24.4371 30.4372C24.4431 30.4455 24.4485 30.4528 24.453 30.459C24.4662 30.4764 24.4912 30.5125 24.5275 30.5651C24.9767 31.2156 27.1647 34.3843 30.4275 35.736C33.1845 36.879 34.0035 36.7725 34.6305 36.639Z"/>
</svg>
