<svg width="60" height="60" viewBox="0 0 60 60"  xmlns="http://www.w3.org/2000/svg">
<rect opacity="0.08" x="1" y="1" width="58" height="58" rx="29" stroke="#3725D3" stroke-width="2" fill="none"/>
<path fill-rule="evenodd" clip-rule="evenodd" d="M21.954 32.0836L16.4239 30.0196C15.8622 29.8091 15.8574 29.0161 16.4174 28.8001L39.113 20.0448C39.5942 19.8588 40.0906 20.2803 39.9858 20.7856L35.913 40.3768C35.8169 40.8394 35.2746 41.0492 34.8918 40.7709L29.332 36.7344C28.9943 36.4892 28.5341 36.5024 28.211 36.7656L25.1284 39.2786C24.7706 39.5712 24.2314 39.4082 24.0945 38.9673L21.954 32.0836ZM34.5574 24.3283L23.7495 30.9848C23.3353 31.2405 23.1402 31.7408 23.2741 32.2091L24.4426 36.3151C24.5256 36.606 24.9479 36.5762 24.9882 36.2756L25.292 34.0239C25.3493 33.6 25.5515 33.2094 25.865 32.9176L34.7846 24.6264C34.9514 24.4716 34.7516 24.209 34.5574 24.3283Z"/>
</svg>
