<svg width="60" height="60" viewBox="0 0 60 60" xmlns="http://www.w3.org/2000/svg">
<rect opacity="0.08" x="1" y="1" width="58" height="58" rx="29" stroke="#3725D3" stroke-width="2" fill="none"/>
<path d="M40.8727 36.3663C40.8437 36.3037 40.8166 36.2517 40.7914 36.2101C40.375 35.4602 39.5793 34.5397 38.4047 33.4483L38.3799 33.4234L38.3675 33.4111L38.3549 33.3985H38.3423C37.8092 32.8904 37.4716 32.5487 37.3303 32.3737C37.0716 32.0405 37.0137 31.7032 37.155 31.3614C37.2549 31.1032 37.6301 30.5578 38.2797 29.7247C38.6213 29.2831 38.892 28.9292 39.0918 28.6626C40.5331 26.7464 41.1579 25.522 40.9662 24.9888L40.8918 24.8642C40.8418 24.7892 40.7127 24.7206 40.5046 24.658C40.2961 24.5955 40.0296 24.5852 39.7047 24.6268L36.106 24.6517C36.0477 24.631 35.9644 24.6329 35.856 24.658C35.7477 24.683 35.6935 24.6956 35.6935 24.6956L35.6308 24.7269L35.5811 24.7645C35.5395 24.7893 35.4936 24.833 35.4436 24.8955C35.3938 24.9578 35.3522 25.0309 35.319 25.1142C34.9272 26.1222 34.4817 27.0594 33.9817 27.9257C33.6735 28.4423 33.3904 28.89 33.1319 29.269C32.8737 29.648 32.6571 29.9272 32.4823 30.1061C32.3072 30.2853 32.1492 30.4288 32.0073 30.5372C31.8657 30.6456 31.7575 30.6915 31.6826 30.6747C31.6076 30.6579 31.5369 30.6413 31.47 30.6247C31.3534 30.5497 31.2597 30.4476 31.189 30.3185C31.118 30.1894 31.0702 30.0269 31.0452 29.8311C31.0203 29.6352 31.0056 29.4667 31.0014 29.3251C30.9975 29.1836 30.9993 28.9834 31.0078 28.7252C31.0164 28.4668 31.0203 28.292 31.0203 28.2004C31.0203 27.8838 31.0265 27.5402 31.0389 27.1695C31.0515 26.7987 31.0617 26.505 31.0702 26.2886C31.0787 26.072 31.0827 25.8429 31.0827 25.6013C31.0827 25.3597 31.068 25.1702 31.0389 25.0327C31.0102 24.8954 30.9661 24.7621 30.908 24.6328C30.8496 24.5037 30.7641 24.4038 30.6519 24.3329C30.5394 24.2621 30.3996 24.2059 30.2333 24.1642C29.7917 24.0642 29.2294 24.0102 28.5462 24.0018C26.9968 23.9851 26.0012 24.0852 25.5597 24.3018C25.3848 24.3933 25.2265 24.5184 25.0849 24.6765C24.9349 24.8599 24.914 24.9599 25.0223 24.9764C25.5222 25.0513 25.8761 25.2304 26.0844 25.5136L26.1595 25.6637C26.2178 25.772 26.2761 25.9637 26.3345 26.2385C26.3927 26.5134 26.4303 26.8174 26.4469 27.1505C26.4885 27.7587 26.4885 28.2794 26.4469 28.7125C26.4052 29.1458 26.3658 29.4831 26.3282 29.7247C26.2906 29.9663 26.2344 30.1621 26.1595 30.312C26.0844 30.4619 26.0345 30.5536 26.0094 30.5868C25.9844 30.6201 25.9636 30.641 25.9471 30.6493C25.8388 30.6908 25.7262 30.7119 25.6096 30.7119C25.4929 30.7119 25.3513 30.6535 25.1848 30.5368C25.0182 30.4202 24.8454 30.2599 24.6663 30.0558C24.4871 29.8516 24.2851 29.5663 24.0601 29.1998C23.8353 28.8333 23.602 28.4001 23.3604 27.9003L23.1605 27.5378C23.0355 27.3046 22.8649 26.9651 22.6483 26.5195C22.4315 26.0737 22.24 25.6425 22.0734 25.226C22.0068 25.051 21.9068 24.9179 21.7736 24.8262L21.711 24.7886C21.6694 24.7554 21.6027 24.72 21.5111 24.6824C21.4195 24.6448 21.3238 24.6178 21.2237 24.6013L17.7999 24.6261C17.45 24.6261 17.2126 24.7054 17.0876 24.8637L17.0376 24.9386C17.0126 24.9803 17 25.0469 17 25.1386C17 25.2302 17.025 25.3427 17.075 25.4759C17.5748 26.6506 18.1184 27.7835 18.7056 28.8748C19.2929 29.9661 19.8032 30.8451 20.2363 31.5112C20.6695 32.1777 21.111 32.8068 21.5609 33.3981C22.0107 33.9896 22.3085 34.3686 22.4542 34.5352C22.6001 34.702 22.7147 34.8267 22.798 34.91L23.1104 35.2099C23.3104 35.4098 23.6039 35.6493 23.9913 35.9284C24.3788 36.2075 24.8078 36.4824 25.2784 36.7534C25.7492 37.0239 26.2968 37.2446 26.9217 37.4154C27.5465 37.5863 28.1546 37.6549 28.7461 37.6218H30.1831C30.4746 37.5966 30.6954 37.505 30.8455 37.3468L30.8952 37.2842C30.9286 37.2344 30.9599 37.1572 30.9888 37.0533C31.018 36.9491 31.0326 36.8344 31.0326 36.7096C31.024 36.3515 31.0513 36.0287 31.1136 35.7413C31.1759 35.4541 31.2469 35.2374 31.3263 35.0916C31.4056 34.9458 31.4952 34.8228 31.5948 34.7231C31.6947 34.6232 31.7659 34.5627 31.8076 34.5419C31.8491 34.5209 31.8822 34.5067 31.9072 34.4981C32.1072 34.4315 32.3425 34.496 32.6135 34.692C32.8842 34.8878 33.1382 35.1295 33.3758 35.4168C33.6132 35.7043 33.8985 36.0269 34.2317 36.3851C34.565 36.7433 34.8565 37.0097 35.1063 37.1849L35.3562 37.3348C35.523 37.4349 35.7396 37.5265 36.0062 37.6098C36.2724 37.693 36.5056 37.7139 36.7058 37.6722L39.9046 37.6224C40.221 37.6224 40.4672 37.57 40.6418 37.466C40.8168 37.3619 40.9207 37.2472 40.9543 37.1224C40.9877 36.9975 40.9895 36.8558 40.9606 36.6973C40.931 36.5393 40.9018 36.4288 40.8727 36.3663Z"/>
</svg>
