<svg width="60" height="60" viewBox="0 0 60 60" xmlns="http://www.w3.org/2000/svg">
<rect x="0" y="0" rx="30" ry="30" width="60" height="60" fill="white" />
<rect x="1" y="1" width="58" height="58" rx="29" stroke="#3725D3" stroke-opacity="0.08" stroke-width="2" fill="none"/>
<path d="M37.3535 28.6464L38.0607 29.3536L38.7678 28.6464L38.0607 27.9393L37.3535 28.6464ZM30.3535 21.6464L29.6464 22.3536L30.3535 21.6464ZM36.6464 29.3536L35.9393 30.0607L36.6464 30.7678L37.3535 30.0607L36.6464 29.3536ZM30 22.7071L30.7071 22L30 21.2929L29.2929 22L30 22.7071ZM23.3535 29.3536L22.6464 30.0607L23.3535 30.7678L24.0607 30.0607L23.3535 29.3536ZM22.6464 28.6464L21.9393 27.9393L21.2322 28.6464L21.9393 29.3536L22.6464 28.6464ZM29.6464 21.6464L30.3535 22.3536L29.6464 21.6464ZM30 21.2929L30.7071 20.5858L30 19.8787L29.2929 20.5858L30 21.2929ZM30.5 38V39H31.5V38H30.5ZM30.5 22H31.5V21H30.5V22ZM29.5 38H28.5V39H29.5V38ZM29.5 22V21H28.5V22H29.5ZM38.0607 27.9393L31.0607 20.9393L29.6464 22.3536L36.6464 29.3536L38.0607 27.9393ZM37.3535 30.0607L38.0607 29.3536L36.6464 27.9393L35.9393 28.6464L37.3535 30.0607ZM29.2929 23.4142L35.9393 30.0607L37.3535 28.6464L30.7071 22L29.2929 23.4142ZM24.0607 30.0607L30.7071 23.4142L29.2929 22L22.6464 28.6464L24.0607 30.0607ZM21.9393 29.3536L22.6464 30.0607L24.0607 28.6464L23.3535 27.9393L21.9393 29.3536ZM28.9393 20.9393L21.9393 27.9393L23.3535 29.3536L30.3535 22.3536L28.9393 20.9393ZM29.2929 20.5858L28.9393 20.9393L30.3535 22.3536L30.7071 22L29.2929 20.5858ZM31.0607 20.9393L30.7071 20.5858L29.2929 22L29.6464 22.3536L31.0607 20.9393ZM31.5 38V22H29.5V38H31.5ZM29.5 39H30.5V37H29.5V39ZM28.5 22V38H30.5V22H28.5ZM30.5 21H29.5V23H30.5V21Z"/>
</svg>
