<svg width="23" height="18" viewBox="0 0 23 18" xmlns="http://www.w3.org/2000/svg">
<path d="M22.1205 2.14203C21.3063 2.50279 20.4327 2.74745 19.5149 2.85668C20.4521 2.29546 21.1695 1.40529 21.5095 0.347848C20.6304 0.867571 19.66 1.24496 18.6261 1.44954C17.7981 0.56627 16.6204 0.0161133 15.3141 0.0161133C12.8081 0.0161133 10.7761 2.04805 10.7761 4.55273C10.7761 4.90796 10.8162 5.25491 10.8936 5.58668C7.12283 5.39728 3.77913 3.59067 1.54124 0.845451C1.15004 1.51449 0.9275 2.29405 0.9275 3.12621C0.9275 4.70063 1.72922 6.08981 2.94563 6.90256C2.20196 6.87769 1.50252 6.67311 0.890199 6.33307V6.38974C0.890199 8.58755 2.45493 10.4218 4.52971 10.8393C4.14957 10.9416 3.74873 10.9982 3.33404 10.9982C3.04102 10.9982 2.75765 10.9692 2.4798 10.9139C3.05757 12.7178 4.73291 14.0295 6.71786 14.0655C5.16556 15.2819 3.20826 16.0048 1.08234 16.0048C0.716055 16.0048 0.355259 15.9827 3.05176e-05 15.9426C2.00848 17.2323 4.3929 17.9843 6.95562 17.9843C15.3031 17.9843 19.866 11.0701 19.866 5.07386L19.8508 4.4864C20.7424 3.85051 21.5136 3.05157 22.1205 2.14203Z"/>
</svg>
