<svg width="25" height="14" viewBox="0 0 25 14" xmlns="http://www.w3.org/2000/svg">
<path d="M24.3195 12.631C24.2899 12.5672 24.2623 12.5142 24.2366 12.4718C23.8124 11.7078 23.0018 10.7701 21.8053 9.65836L21.78 9.63291L21.7673 9.62042L21.7545 9.60763H21.7417C21.1986 9.08994 20.8547 8.74186 20.7107 8.56365C20.4472 8.22417 20.3882 7.88054 20.5322 7.53237C20.6339 7.26931 21.0161 6.71377 21.6779 5.86499C22.026 5.41516 22.3016 5.05464 22.5052 4.78302C23.9735 2.83105 24.61 1.58371 24.4148 1.04052L24.3389 0.913581C24.2879 0.837161 24.1564 0.76725 23.9445 0.703492C23.7321 0.639868 23.4606 0.629346 23.1296 0.671747L19.4635 0.697072C19.4041 0.676027 19.3193 0.677989 19.2088 0.703492C19.0985 0.728995 19.0433 0.741791 19.0433 0.741791L18.9795 0.77367L18.9288 0.81197C18.8864 0.837295 18.8397 0.881836 18.7888 0.945505C18.7381 1.00895 18.6957 1.08341 18.6618 1.16826C18.2626 2.19512 17.8088 3.14984 17.2995 4.03237C16.9855 4.55862 16.6971 5.01469 16.4338 5.40085C16.1708 5.78687 15.9501 6.07129 15.772 6.2536C15.5937 6.43609 15.4327 6.58229 15.2882 6.69273C15.1439 6.80321 15.0337 6.84989 14.9574 6.83282C14.8809 6.81574 14.8089 6.7988 14.7408 6.78186C14.622 6.70543 14.5265 6.6015 14.4545 6.46998C14.3822 6.33845 14.3335 6.1729 14.308 5.97347C14.2827 5.7739 14.2677 5.60224 14.2635 5.45792C14.2595 5.31377 14.2613 5.10988 14.2699 4.84682C14.2788 4.58363 14.2827 4.40556 14.2827 4.31219C14.2827 3.98966 14.289 3.63961 14.3016 3.26197C14.3145 2.88433 14.3249 2.58511 14.3335 2.36468C14.3422 2.14402 14.3462 1.91057 14.3462 1.66445C14.3462 1.41834 14.3312 1.22533 14.3016 1.08524C14.2724 0.945326 14.2275 0.809518 14.1683 0.677855C14.1088 0.546326 14.0217 0.444581 13.9074 0.372352C13.7928 0.300212 13.6504 0.242963 13.4809 0.200428C13.0311 0.0986386 12.4583 0.0435749 11.7623 0.0350144C10.1839 0.0180717 9.16969 0.119995 8.7199 0.340651C8.54169 0.433881 8.38043 0.561263 8.23624 0.722397C8.08344 0.909167 8.06213 1.01109 8.17243 1.02786C8.68169 1.10414 9.04222 1.28663 9.2544 1.57515L9.33087 1.72803C9.39034 1.83834 9.44973 2.03363 9.50917 2.31363C9.56851 2.59363 9.60681 2.90336 9.62366 3.24266C9.66602 3.86228 9.66602 4.39267 9.62366 4.83389C9.58117 5.27529 9.54105 5.61892 9.50275 5.86503C9.46445 6.11115 9.4072 6.31058 9.33087 6.46329C9.2544 6.61604 9.20353 6.7094 9.17803 6.74329C9.15257 6.77717 9.13134 6.79853 9.11449 6.80691C9.00418 6.84918 8.88947 6.87072 8.77073 6.87072C8.65182 6.87072 8.50763 6.81124 8.33794 6.69237C8.16829 6.5735 7.99222 6.41023 7.80973 6.20228C7.62724 5.99429 7.42143 5.70363 7.19221 5.33027C6.96317 4.95691 6.72553 4.51564 6.47941 4.00647L6.27579 3.63721C6.1485 3.39965 5.97461 3.05375 5.75396 2.59982C5.53317 2.14571 5.33801 1.70645 5.16836 1.28213C5.10055 1.10392 4.99867 0.968244 4.8629 0.874881L4.79919 0.836581C4.75683 0.802696 4.68884 0.766715 4.59557 0.728371C4.50216 0.690072 4.40469 0.662607 4.30277 0.645709L0.814853 0.671034C0.458433 0.671034 0.216599 0.751779 0.0892611 0.913046L0.0382994 0.989333C0.0128408 1.03182 0 1.09968 0 1.19309C0 1.28645 0.0254586 1.40104 0.0764204 1.53672C0.585592 2.7334 1.13931 3.88751 1.73756 4.99922C2.33582 6.11092 2.85569 7.00643 3.29687 7.68494C3.73813 8.36394 4.18792 9.00478 4.64622 9.60714C5.10452 10.2097 5.40788 10.5959 5.55631 10.7655C5.70491 10.9355 5.82164 11.0626 5.90648 11.1474L6.22478 11.4529C6.42845 11.6566 6.72754 11.9005 7.12217 12.1848C7.51689 12.4692 7.95387 12.7492 8.43335 13.0252C8.91292 13.3008 9.47082 13.5257 10.1074 13.6996C10.7438 13.8737 11.3633 13.9436 11.9659 13.9099H13.4298C13.7267 13.8843 13.9517 13.7909 14.1046 13.6298L14.1552 13.566C14.1893 13.5153 14.2211 13.4366 14.2506 13.3307C14.2804 13.2247 14.2952 13.1078 14.2952 12.9807C14.2865 12.6158 14.3142 12.287 14.3777 11.9943C14.4412 11.7016 14.5135 11.481 14.5944 11.3323C14.6752 11.1839 14.7664 11.0586 14.868 10.957C14.9697 10.8552 15.0422 10.7936 15.0847 10.7723C15.127 10.751 15.1608 10.7365 15.1862 10.7278C15.3899 10.6599 15.6296 10.7257 15.9057 10.9253C16.1815 11.1247 16.4402 11.371 16.6822 11.6636C16.9241 11.9565 17.2147 12.2852 17.5541 12.65C17.8937 13.015 18.1907 13.2863 18.4452 13.4648L18.6997 13.6176C18.8696 13.7195 19.0903 13.8128 19.3619 13.8977C19.633 13.9825 19.8706 14.0037 20.0746 13.9613L23.3332 13.9105C23.6555 13.9105 23.9063 13.8571 24.0842 13.7512C24.2625 13.6452 24.3684 13.5283 24.4025 13.4012C24.4366 13.2739 24.4384 13.1296 24.409 12.9682C24.3788 12.8072 24.3491 12.6946 24.3195 12.631Z"/>
</svg>
