<svg viewBox="0 0 106 113" fill="none" xmlns="http://www.w3.org/2000/svg">
<path fill-rule="evenodd" clip-rule="evenodd" d="M56.0607 7.74168C57.3135 7.76816 58.5696 7.81783 59.8323 7.91385V7.91716C60.0555 7.93288 60.2791 7.94392 60.5028 7.95027C60.7604 7.95595 61.0178 7.9681 61.2748 7.98669L62.4361 8.07609L62.4295 8.1423C63.7059 8.30672 64.9806 8.48442 66.2534 8.67537C86.1841 12.3903 100.171 28.5015 98.8269 46.1557C98.8073 46.4172 98.6993 47.6522 98.3787 49.5395C98.3035 50.4003 97.4269 58.9129 91.4015 68.8756C89.7834 71.6401 87.887 74.2276 85.7425 76.5968C82.4214 80.379 78.4864 83.5591 74.1073 86C91.7319 80.6362 104.483 66.0745 105.879 47.7251C106.933 33.9249 101.051 20.6578 89.7431 11.3341L89.4814 11.1255C82.1738 5.18229 72.596 1.27864 63.051 0.318459L61.8734 0.238995C61.8015 0.232373 61.7324 0.222808 61.6633 0.213243C61.6288 0.208461 61.5943 0.203678 61.5594 0.199264L61.3697 0.172776C37.1211 -1.65489 15.7936 11.1719 6 31.3258C13.5824 20.6744 26.1891 11.9632 42.0735 8.90714C42.1025 8.90191 42.1314 8.89702 42.1602 8.89214C42.2226 8.88156 42.2846 8.87107 42.345 8.85748C43.1563 8.70848 43.974 8.56611 44.8049 8.4436L45.5703 8.34096C46.2276 8.24902 46.8863 8.16734 47.5461 8.09595C47.8751 8.06192 48.2041 8.03324 48.5319 8.00467C48.6505 7.99433 48.769 7.984 48.8872 7.97344L48.9849 7.96537C49.4324 7.92836 49.8752 7.89174 50.3265 7.86087C50.9807 7.82114 51.6349 7.79465 52.2891 7.77479L52.3075 7.77394C52.5891 7.76098 52.8678 7.74816 53.1527 7.74168C54.0086 7.72549 54.8647 7.72549 55.7205 7.74168H56.0607ZM0.402374 49.0954C1.67875 40.1259 6.71862 31.0867 14.6328 23.8819V23.8886C20.8112 18.5215 28.4597 14.4779 36.5937 12C22.5142 19.1318 12.1686 33.14 10.5248 49.583H10.446L10.3574 50.7406C9.64871 60.0385 11.1318 68.5071 14.5606 75.8181L14.7837 76.3422L14.7855 76.3464C16.9423 81.3775 21.99 93.1525 36.5707 101.894C44.0255 106.365 53.1472 109.119 62.9447 109.855C70.3897 110.419 77.6805 109.736 84 107.997C75.7511 111.888 65.5172 113.627 54.4892 112.797C54.3366 112.787 54.1936 112.771 54.0515 112.756C54.0071 112.751 53.9627 112.746 53.9182 112.741L53.6197 112.708L53.2259 112.691L52.8256 112.671C22.2156 110.363 -0.975717 84.6549 0.0316018 54.1374C0.05457 53.1257 0.103788 52.1372 0.175973 51.1818V51.1487L0.179254 51.1221L0.182536 51.0956C0.231753 50.4222 0.313782 49.7588 0.402374 49.0954ZM94.1794 101.418C86.9117 106.333 75.4695 108.72 63.5816 107.809C54.1579 107.085 45.4058 104.401 38.2692 100.046C34.5146 97.7723 31.0628 95.0073 28 91.8199C33.092 95.8114 39.2194 98.9331 46.2938 101.01C49.2923 101.768 52.3487 102.259 55.4292 102.476C64.6138 103.181 81.3708 102.247 96.673 89.6657C98.4657 88.2244 100.167 86.6659 101.765 85C101.893 85.5462 101.969 86.104 101.991 86.6654C102.006 86.9169 101.999 87.1738 101.993 87.4313L101.991 87.5284C101.971 87.9633 101.929 88.4049 101.86 88.8566L101.817 89.1533C101.761 89.4746 101.694 89.7939 101.617 90.1107C101.499 90.597 101.359 91.0773 101.198 91.5502C100.408 93.8157 99.0649 96.1789 97.2103 98.4612C96.7942 98.9702 96.3486 99.459 95.9029 99.9445C95.3525 100.474 94.779 100.976 94.1794 101.418ZM65.4054 43.3024C65.1572 46.5064 63.191 53.8506 50.326 52.8982C49.8833 52.8643 49.4412 52.8221 49 52.7718C50.264 55.8203 53.9056 61.1819 64.0043 61.9303C76.3467 62.8438 85.3251 54.6249 85.9652 46.38C86.0959 44.663 85.8215 43.2765 85.7464 42.9525C85.6885 42.8089 85.6271 42.6777 85.5647 42.5445L85.5355 42.4821L85.4982 42.4018C85.4638 42.3273 85.4301 42.2519 85.3964 42.1765C85.3245 42.0157 85.2527 41.8552 85.1749 41.7052C85.1101 41.5811 85.0411 41.4655 84.9716 41.349C84.9359 41.2891 84.9001 41.229 84.8646 41.1675L84.8134 41.0758C84.716 40.901 84.6175 40.7243 84.5118 40.5616C84.4379 40.4451 84.3581 40.3372 84.2783 40.2293L84.2782 40.2292L84.2782 40.2291L84.2782 40.229L84.2776 40.2282C84.2378 40.1745 84.1981 40.1208 84.1591 40.066C84.1182 40.0087 84.0779 39.9508 84.0378 39.893C83.9531 39.7711 83.8689 39.65 83.7803 39.5379C83.6823 39.4164 83.5843 39.3059 83.4863 39.1953L83.4336 39.1358L83.3883 39.0844C83.3379 39.0272 83.2887 38.9691 83.2399 38.9114C83.1561 38.8123 83.0733 38.7144 82.9866 38.6243C82.8883 38.5223 82.7868 38.4281 82.6854 38.3342L82.6853 38.3341L82.6852 38.334L82.6851 38.3339C82.6418 38.2938 82.5985 38.2536 82.5555 38.2129C82.5312 38.19 82.5069 38.1666 82.4826 38.1431C82.4569 38.1181 82.431 38.0928 82.4052 38.0674C82.3174 37.9816 82.2287 37.8947 82.1374 37.8144C82.0248 37.7151 81.9084 37.6254 81.791 37.5349C81.7552 37.5073 81.7193 37.4796 81.6834 37.4516L81.594 37.3787L81.5936 37.3784C81.4797 37.2855 81.3654 37.1922 81.2491 37.105C81.1384 37.0232 81.0226 36.9482 80.9079 36.8738L80.9078 36.8738L80.9077 36.8737C80.8829 36.8577 80.8581 36.8416 80.8335 36.8255C80.8141 36.8129 80.7947 36.8002 80.7755 36.7875C80.7373 36.7614 80.6991 36.7349 80.6609 36.7083C80.552 36.6326 80.4425 36.5566 80.3313 36.4894C80.2179 36.4197 80.1029 36.3562 79.9874 36.2924L79.9873 36.2924L79.9872 36.2923C79.9365 36.2643 79.8857 36.2362 79.8349 36.2076C79.8075 36.1922 79.7804 36.1768 79.7534 36.1613L79.6825 36.1205C79.5856 36.0647 79.4895 36.0093 79.3907 35.9581C79.293 35.9078 79.1942 35.862 79.0949 35.8161L79.0948 35.816C79.0281 35.7851 78.9611 35.7542 78.8942 35.7216C78.8531 35.7021 78.8117 35.6821 78.7702 35.6621L78.7699 35.6619L78.7698 35.6619L78.7692 35.6616L78.7691 35.6615C78.6592 35.6084 78.5481 35.5547 78.437 35.5078C78.3241 35.4585 78.2128 35.4155 78.1009 35.3722L78.1007 35.3721C78.0508 35.3528 78.0007 35.3334 77.9503 35.3134C77.9034 35.2946 77.8561 35.2751 77.8087 35.2556L77.8085 35.2556C77.7011 35.2114 77.593 35.167 77.4866 35.1288C77.3605 35.084 77.2362 35.0443 77.1123 35.0048L77.0755 34.993L76.9738 34.9603L76.5427 34.8178L76.0626 34.6882C76.0161 34.6759 75.9693 34.663 75.9224 34.65C75.8209 34.6219 75.7189 34.5937 75.6184 34.5716L75.2134 34.4809C75.1434 34.467 75.0734 34.4513 75.0035 34.4356C74.9101 34.4147 74.8168 34.3938 74.7235 34.3772C74.6176 34.3547 74.5136 34.338 74.4086 34.3211L74.3152 34.3059L74.2236 34.2896L74.2235 34.2896C74.1053 34.2684 73.9851 34.2468 73.871 34.2314C73.6375 34.1976 73.4034 34.1673 73.1688 34.1407L73.0708 34.1277C72.1116 34.0176 71.1455 33.9786 70.1804 34.0111C69.2917 34.025 68.4043 34.0845 67.5218 34.1893L67.3161 34.2217C66.648 34.3112 65.9835 34.4246 65.3238 34.5618L65.2482 34.5768L65.248 34.5768C65.1083 34.6043 64.965 34.6326 64.8241 34.6655C64.1186 34.8275 63.4164 35.0057 62.724 35.2162C62.6577 35.2368 62.5927 35.2599 62.5274 35.2832L62.5274 35.2832L62.5273 35.2833L62.5273 35.2833C62.4897 35.2967 62.4519 35.3101 62.4137 35.3232C61.7964 35.5175 61.1889 35.7411 60.5912 35.9776C60.5396 35.9985 60.487 36.0191 60.4344 36.0397L60.4343 36.0397C60.3407 36.0764 60.2467 36.1131 60.1569 36.1525C60.1036 36.1754 60.0522 36.2002 60.0012 36.2249L60.001 36.225L60.0009 36.225L60.0008 36.2251C59.9581 36.2457 59.9158 36.2662 59.8727 36.2853C63.1714 37.1535 65.6536 40.1567 65.4054 43.3024ZM60.3758 74.2022C61.0869 74.2981 61.8045 74.3875 62.5421 74.4636V74.4669C73.9621 75.9462 85.0349 71.366 92 63.3175C91.3551 64.6843 90.6308 66.0677 89.8106 67.4543C88.4699 69.6846 86.9513 71.8029 85.2697 73.7885C79.4423 80.5761 70.7309 86.3609 57.7167 87.9958C56.8668 88.009 56.0168 87.9924 55.1701 87.9296C55.018 87.9163 54.8692 87.8965 54.7236 87.8733L54.5814 87.8535H54.5318C54.4194 87.8435 54.3102 87.8435 54.1978 87.8435L53.9696 87.8402C36.1367 86.5065 22.7356 71.0913 24.0949 53.4721C24.3139 50.5791 24.9236 47.7292 25.9073 45C25.9497 46.16 26.0735 47.3156 26.2777 48.4583C26.2826 48.4856 26.2872 48.5129 26.2917 48.5402C26.2959 48.5663 26.3001 48.5924 26.3042 48.6185C26.3162 48.6946 26.3283 48.7711 26.3439 48.8488L26.4431 49.3287C26.8952 51.5158 27.6289 53.6349 28.6259 55.6331C32.1415 62.659 40.5056 71.5877 60.3758 74.2253V74.2022ZM47.0993 51.1474C47.4944 45.9814 49.7989 40.9443 53.1141 38.0028C53.1135 38.0032 53.113 38.0037 53.1125 38.0042C53.1119 38.0048 53.1113 38.0054 53.1108 38.0061C53.1108 38.0061 53.5651 37.6028 53.6836 37.5103C58.5724 33.3954 65.6077 31.0156 72.294 31.171C73.1968 31.1918 74.0979 31.2602 74.9935 31.3759C75.0815 31.3877 75.1682 31.4029 75.2552 31.4182C75.3148 31.4287 75.3745 31.4392 75.4347 31.4486C75.731 31.4916 76.0273 31.5346 76.3137 31.5874C76.4198 31.6075 76.5234 31.6313 76.6268 31.655C76.6935 31.6703 76.7601 31.6856 76.8273 31.6998C76.8874 31.7131 76.9475 31.7263 77.0076 31.7394C77.2008 31.7817 77.3936 31.8238 77.5844 31.8717C77.7057 31.901 77.8254 31.9364 77.9446 31.9718L77.9448 31.9718C78.0003 31.9882 78.0557 32.0047 78.1112 32.0204C78.188 32.0424 78.2655 32.0641 78.3431 32.0858L78.3435 32.0859C78.4984 32.1292 78.6534 32.1725 78.8025 32.2187C78.9282 32.26 79.0491 32.3045 79.1696 32.3488L79.1715 32.3495C79.224 32.3688 79.2765 32.3881 79.3293 32.4071L79.33 32.4074C79.5471 32.4833 79.7641 32.5592 79.9745 32.6385C80.0746 32.6791 80.1736 32.7231 80.2728 32.7671C80.3203 32.7882 80.3679 32.8094 80.4156 32.8301C80.4386 32.8402 80.4617 32.8501 80.4848 32.8599C80.6889 32.9459 80.893 33.0351 81.0906 33.1276C81.2552 33.207 81.4198 33.2929 81.5778 33.3755C81.7753 33.4747 81.9663 33.5738 82.1539 33.6829C82.2681 33.7474 82.3805 33.8153 82.4924 33.8829C82.5355 33.9089 82.5784 33.9348 82.6214 33.9605C82.6606 33.9844 82.7005 34.0079 82.7405 34.0315C82.8281 34.0831 82.9164 34.1352 83 34.1919C78.9968 29.1945 71.9549 24.9342 61.081 24.1178C48.2055 23.1527 36.9958 28.1534 30.3194 37.8375C29.7334 38.8621 29.2725 40.4254 29.0848 42.3325L29.0683 42.4779C29.0604 42.5556 29.0561 42.6356 29.0517 42.7158C29.0488 42.7688 29.0459 42.822 29.042 42.8746C28.9443 44.439 29.0172 46.0094 29.2593 47.558C29.6083 49.7989 30.3161 52.2083 31.5374 54.6112C34.2765 59.9986 40.1398 66.4866 52.5807 70C49.1833 66.7874 46.3323 61.1256 47.0993 51.1474Z" fill="white"/>
</svg>
