<svg xmlns="http://www.w3.org/2000/svg" viewBox="0 0 100 25">
  <path d="M88.05,12.34,99.69,0H91l-6.4,6.79L78.55,0H70L80.89,12.34,69.7,25h8.89l6.06-6.85L91.11,25H100Z"/>
  <path d="M55.47,9.75H42.88A1.77,1.77,0,0,1,41.1,8.28a1.74,1.74,0,0,1,1.46-2l.28,0h12.6L62,0H42a8.19,8.19,0,0,0-8.3,8v.29A7.22,7.22,0,0,0,41,15.14H53.6a1.77,1.77,0,0,1,1.78,1.48,1.74,1.74,0,0,1-1.46,2l-.28,0H40l-5.42,6.3H54.44a8.19,8.19,0,0,0,8.33-8V16.7A7.21,7.21,0,0,0,55.47,9.75Z"/>
  <path d="M14.28,0H0V25H14.28A12.62,12.62,0,0,0,27,12.5,12.62,12.62,0,0,0,14.28,0Zm0,18.72H6.4V6.28h7.88a6.29,6.29,0,0,1,6.34,6.22A6.29,6.29,0,0,1,14.28,18.72Z"/>
  <g style="visibility:hidden">
    <path d="M14.07,0a12.5,12.5,0,1,0,12.5,12.5A12.5,12.5,0,0,0,14.07,0Zm0,18.75a6.25,6.25,0,1,1,6.31-6.25A6.28,6.28,0,0,1,14.07,18.75Z"/>
    <path d="M48.24,25a12.5,12.5,0,1,1,12.5-12.5A12.5,12.5,0,0,1,48.24,25Z"/>
    <path d="M84.85,25a12.5,12.5,0,1,1,12.5-12.5A12.5,12.5,0,0,1,84.85,25Z"/>
  </g>
</svg>
