<svg  viewBox="0 0 29 24" fill="none" xmlns="http://www.w3.org/2000/svg">
<path opacity="0.4" d="M13.1094 19.8516C13.1094 19.5651 13.3047 18.888 13.6953 17.8203C14.0859 16.7526 14.5938 15.5026 15.2188 14.0703C15.8698 12.638 16.612 11.1276 17.4453 9.53906C18.2786 7.95052 19.125 6.49219 19.9844 5.16406C20.8438 3.83594 21.6771 2.74219 22.4844 1.88281C23.3177 0.997396 24.0599 0.554688 24.7109 0.554688C25.0234 0.554688 25.4141 0.645833 25.8828 0.828125C26.3516 1.01042 26.7943 1.24479 27.2109 1.53125C27.6536 1.79167 28.0312 2.09115 28.3438 2.42969C28.6562 2.74219 28.8125 3.05469 28.8125 3.36719C28.8125 3.6276 28.5391 4.27865 27.9922 5.32031C27.4714 6.33594 26.8203 7.66406 26.0391 9.30469C25.2578 10.9193 24.4245 12.7812 23.5391 14.8906C22.6536 17 21.8724 19.2656 21.1953 21.6875C21.0391 22.2083 20.8177 22.625 20.5312 22.9375C20.2448 23.224 19.8542 23.3672 19.3594 23.3672C18.8906 23.3672 18.3047 23.276 17.6016 23.0938C16.8984 22.8854 16.2083 22.625 15.5312 22.3125C14.8802 21.974 14.3073 21.5964 13.8125 21.1797C13.3438 20.763 13.1094 20.3203 13.1094 19.8516ZM0.21875 19.8516C0.21875 19.5651 0.414062 18.888 0.804688 17.8203C1.19531 16.7526 1.70312 15.5026 2.32812 14.0703C2.97917 12.638 3.72135 11.1276 4.55469 9.53906C5.38802 7.95052 6.23438 6.49219 7.09375 5.16406C7.95312 3.83594 8.78646 2.74219 9.59375 1.88281C10.4271 0.997396 11.1693 0.554688 11.8203 0.554688C12.1328 0.554688 12.5234 0.645833 12.9922 0.828125C13.4609 1.01042 13.9036 1.24479 14.3203 1.53125C14.763 1.79167 15.1406 2.09115 15.4531 2.42969C15.7656 2.74219 15.9219 3.05469 15.9219 3.36719C15.9219 3.6276 15.6484 4.27865 15.1016 5.32031C14.5807 6.33594 13.9297 7.66406 13.1484 9.30469C12.3672 10.9193 11.5339 12.7812 10.6484 14.8906C9.76302 17 8.98177 19.2656 8.30469 21.6875C8.14844 22.2083 7.92708 22.625 7.64062 22.9375C7.35417 23.224 6.96354 23.3672 6.46875 23.3672C6 23.3672 5.41406 23.276 4.71094 23.0938C4.00781 22.8854 3.31771 22.625 2.64062 22.3125C1.98958 21.974 1.41667 21.5964 0.921875 21.1797C0.453125 20.763 0.21875 20.3203 0.21875 19.8516Z" fill="#A1A4C3"/>
</svg>
