<svg viewBox="0 0 29 24" fill="none" xmlns="http://www.w3.org/2000/svg">
<path opacity="0.4" d="M15.8516 4.07031C15.8516 4.35677 15.6562 5.03385 15.2656 6.10156C14.875 7.16927 14.3542 8.41927 13.7031 9.85156C13.0781 11.2839 12.349 12.7943 11.5156 14.3828C10.6823 15.9714 9.83594 17.4297 8.97656 18.7578C8.11719 20.0859 7.27083 21.1927 6.4375 22.0781C5.63021 22.9375 4.90104 23.3672 4.25 23.3672C3.9375 23.3672 3.54688 23.276 3.07812 23.0938C2.60938 22.9115 2.15365 22.6901 1.71094 22.4297C1.29427 22.1432 0.929688 21.8438 0.617188 21.5312C0.304688 21.1927 0.148438 20.8672 0.148438 20.5547C0.148438 20.2943 0.408854 19.6562 0.929688 18.6406C1.47656 17.599 2.14062 16.2708 2.92188 14.6562C3.70312 13.0156 4.53646 11.1406 5.42188 9.03125C6.30729 6.92188 7.08854 4.65625 7.76562 2.23438C7.92188 1.71354 8.14323 1.3099 8.42969 1.02344C8.71615 0.710938 9.10677 0.554688 9.60156 0.554688C10.0703 0.554688 10.6562 0.658854 11.3594 0.867188C12.0625 1.04948 12.7396 1.3099 13.3906 1.64844C14.0677 1.96094 14.6406 2.32552 15.1094 2.74219C15.6042 3.15885 15.8516 3.60156 15.8516 4.07031ZM28.7422 4.07031C28.7422 4.35677 28.5469 5.03385 28.1562 6.10156C27.7656 7.16927 27.2448 8.41927 26.5938 9.85156C25.9688 11.2839 25.2396 12.7943 24.4062 14.3828C23.5729 15.9714 22.7266 17.4297 21.8672 18.7578C21.0078 20.0859 20.1615 21.1927 19.3281 22.0781C18.5208 22.9375 17.7917 23.3672 17.1406 23.3672C16.8281 23.3672 16.4375 23.276 15.9688 23.0938C15.5 22.9115 15.0443 22.6901 14.6016 22.4297C14.1849 22.1432 13.8203 21.8438 13.5078 21.5312C13.1953 21.1927 13.0391 20.8672 13.0391 20.5547C13.0391 20.2943 13.2995 19.6562 13.8203 18.6406C14.3672 17.599 15.0312 16.2708 15.8125 14.6562C16.5938 13.0156 17.4271 11.1406 18.3125 9.03125C19.1979 6.92188 19.9792 4.65625 20.6562 2.23438C20.8125 1.71354 21.0339 1.3099 21.3203 1.02344C21.6068 0.710938 21.9974 0.554688 22.4922 0.554688C22.9609 0.554688 23.5469 0.658854 24.25 0.867188C24.9531 1.04948 25.6302 1.3099 26.2812 1.64844C26.9583 1.96094 27.5312 2.32552 28 2.74219C28.4948 3.15885 28.7422 3.60156 28.7422 4.07031Z" fill="#A1A4C3"/>
</svg>
