<?xml version="1.0" standalone="no"?>
<!DOCTYPE svg PUBLIC "-//W3C//DTD SVG 20010904//EN"
 "http://www.w3.org/TR/2001/REC-SVG-20010904/DTD/svg10.dtd">
<svg version="1.0" xmlns="http://www.w3.org/2000/svg"
 width="700.000000pt" height="700.000000pt" viewBox="0 0 700.000000 700.000000"
 preserveAspectRatio="xMidYMid meet">
<metadata>
Created by potrace 1.11, written by Peter Selinger 2001-2013
</metadata>
<g transform="translate(0.000000,700.000000) scale(0.100000,-0.100000)"
fill="#000000" stroke="none">
<path d="M3298 6995 c-2 -1 -41 -5 -88 -9 -100 -7 -225 -22 -295 -36 -27 -5
-61 -12 -75 -14 -596 -109 -1206 -409 -1660 -817 -126 -114 -178 -166 -331
-335 -209 -230 -452 -625 -585 -952 -63 -153 -143 -399 -170 -525 -20 -90 -53
-272 -59 -322 -4 -33 -9 -69 -11 -80 -18 -98 -25 -570 -10 -715 7 -77 24 -205
31 -250 6 -32 24 -129 29 -155 48 -244 156 -561 273 -802 364 -754 979 -1348
1747 -1687 152 -68 380 -147 516 -181 122 -30 169 -40 250 -55 30 -6 66 -12
80 -15 14 -3 52 -8 85 -11 33 -3 63 -8 66 -9 15 -10 227 -20 409 -20 188 0
341 8 430 21 144 21 295 48 345 61 33 8 67 16 75 18 109 22 388 117 549 187
121 53 308 148 353 179 14 11 29 19 33 19 24 0 383 257 495 355 118 103 293
278 365 365 21 25 41 47 44 50 4 3 45 55 91 115 332 437 547 915 654 1456 14
70 28 155 32 190 3 35 8 67 10 70 9 17 19 214 18 399 0 188 -6 331 -19 420 -3
19 -7 56 -10 81 -3 25 -7 54 -9 65 -2 10 -11 60 -21 109 -59 318 -180 664
-333 955 -488 928 -1361 1590 -2379 1804 -99 21 -244 44 -393 61 -55 7 -526
16 -532 10z m412 -1758 c14 -3 48 -8 75 -12 180 -24 422 -113 625 -231 150
-87 361 -277 477 -430 52 -68 173 -256 173 -268 0 -3 16 -38 35 -79 19 -41 35
-80 35 -86 0 -6 4 -19 9 -29 33 -65 68 -200 91 -352 20 -132 20 -377 1 -505
-34 -224 -127 -479 -237 -653 -19 -29 -34 -54 -34 -57 0 -15 -149 -194 -226
-271 -259 -259 -610 -440 -949 -489 -27 -4 -61 -10 -75 -12 -48 -8 -350 -11
-392 -3 -24 4 -67 11 -96 14 -173 20 -429 114 -632 232 -204 118 -444 358
-580 579 -52 84 -140 264 -140 286 0 8 -4 19 -9 25 -5 5 -14 27 -21 49 -36
127 -60 227 -66 275 -3 30 -10 74 -14 98 -8 44 -5 348 3 392 3 14 8 48 12 75
17 132 87 348 156 488 178 355 469 641 822 807 252 119 480 167 767 164 91 -1
176 -4 190 -7z"/>
</g>
</svg>
